<svg width="45" height="45" viewBox="0 0 45 45" fill="none" xmlns="http://www.w3.org/2000/svg">
<path d="M10.7086 34.2652C13.2509 34.1026 15.0708 32.7877 15.7789 30.4194C16.6004 27.6905 15.5736 24.4668 11.7638 23.4276C9.0445 22.6852 6.20485 24.6011 5.32675 27.2239C4.2008 30.5749 7.26706 34.4773 10.2767 34.1662C10.3758 34.1592 10.4891 34.2299 10.5953 34.2652M20.3252 44C19.7729 42.7982 19.3267 41.5044 18.4557 40.4864C16.7916 38.5352 14.4689 38.1817 12.0399 38.1252C11.0981 38.104 10.1563 38.0757 9.20737 38.104C7.30247 38.1535 5.31259 38.4221 3.71927 39.5532C3.57764 39.6522 3.43601 39.7653 3.30146 39.8784C2.04805 40.9318 1.54527 42.48 1 43.9646M26.1745 1.03824C24.3475 1.17963 22.7895 1.85831 21.5857 3.27222C20.6156 4.41749 19.9853 5.80312 19.9853 7.32308C19.9853 9.77622 19.9853 12.2294 19.9853 14.6896C19.9853 15.9267 19.9853 17.171 19.9853 18.4082C19.9853 19.412 19.7941 20.6634 20.2261 21.6107C20.2402 21.646 20.2615 21.6814 20.2827 21.7167C21.005 23.0811 22.7683 20.8754 23.2782 20.3382C25.615 17.8709 28.9079 18.6344 31.9529 18.6203C33.9074 18.6132 35.8548 18.5849 37.8093 18.6344C40.7197 18.698 43.8214 15.7288 43.9134 12.8656C43.9772 10.766 44.0905 8.6663 43.871 6.58078C43.5877 3.83071 41.3854 1.41292 38.4466 1.17256C34.4031 0.840288 30.3383 1.10186 26.2878 1.03824" stroke="#3A86FF" stroke-width="2" stroke-linecap="round" stroke-linejoin="round"/>
</svg>
